HIERARCHY
ROOT Hips
{
	OFFSET	0.00	0.00	0.00
	CHANNELS 6 Xposition Yposition Zposition Zrotation Xrotation Yrotation
	JOINT LeftUpLeg
	{
		OFFSET	 0.126116	-0.014019	-0.065224
		CHANNELS 3 Zrotation Xrotation Yrotation
		JOINT LeftLeg
		{
			OFFSET	 0.000000	 0.000000	 0.569914
			CHANNELS 3 Zrotation Xrotation Yrotation
			JOINT LeftFoot
			{
				OFFSET	 0.000000	 0.000000	 0.544423
				CHANNELS 3 Zrotation Xrotation Yrotation
				JOINT LeftToeBase
				{
					OFFSET	 0.000000	 0.000000	 0.207117
					CHANNELS 3 Zrotation Xrotation Yrotation
					End Site
					{
						OFFSET	 0.000000	 0.000000	 0.207117
					}
				}
			}
		}
	}
	JOINT RightUpLeg
	{
		OFFSET	-0.124023	-0.008373	-0.065224
		CHANNELS 3 Zrotation Xrotation Yrotation
		JOINT RightLeg
		{
			OFFSET	 0.000000	 0.000000	 0.570047
			CHANNELS 3 Zrotation Xrotation Yrotation
			JOINT RightFoot
			{
				OFFSET	 0.000000	 0.000000	 0.544354
				CHANNELS 3 Zrotation Xrotation Yrotation
				JOINT RightToeBase
				{
					OFFSET	 0.000000	 0.000000	 0.207540
					CHANNELS 3 Zrotation Xrotation Yrotation
					End Site
					{
						OFFSET	 0.000000	 0.000000	 0.207540
					}
				}
			}
		}
	}
	JOINT Spine
	{
		OFFSET	 0.000184	-0.007763	 0.117403
		CHANNELS 3 Zrotation Xrotation Yrotation
		JOINT Spine1
		{
			OFFSET	 0.000000	 0.000000	 0.137269
			CHANNELS 3 Zrotation Xrotation Yrotation
			JOINT Spine2
			{
				OFFSET	 0.000000	 0.000000	 0.156879
				CHANNELS 3 Zrotation Xrotation Yrotation
				JOINT LeftShoulder
				{
					OFFSET	 0.080501	-0.002496	 0.160144
					CHANNELS 3 Zrotation Xrotation Yrotation
					JOINT LeftArm
					{
						OFFSET	 0.000000	 0.000000	 0.164363
						CHANNELS 3 Zrotation Xrotation Yrotation
						JOINT LeftForeArm
						{
							OFFSET	 0.000000	 0.000000	 0.364576
							CHANNELS 3 Zrotation Xrotation Yrotation
							JOINT LeftHand
							{
								OFFSET	 0.000000	 0.000000	 0.360812
								CHANNELS 3 Zrotation Xrotation Yrotation
								JOINT LeftHandIndex1
								{
									OFFSET	 0.000000	 0.000000	 0.086006
									CHANNELS 3 Zrotation Xrotation Yrotation
									JOINT LeftHandIndex2
									{
										OFFSET	 0.000000	 0.000000	 0.047236
										CHANNELS 3 Zrotation Xrotation Yrotation
										JOINT LeftHandIndex3
										{
											OFFSET	-0.004284	-0.000551	 0.038166
											CHANNELS 3 Zrotation Xrotation Yrotation
											End Site
											{
												OFFSET	-0.004284	-0.000551	 0.038166
											}
										}
									}
								}
							}
						}
					}
				}
				JOINT Neck
				{
					OFFSET	 0.000000	 0.000000	 0.176489
					CHANNELS 3 Zrotation Xrotation Yrotation
					JOINT Head
					{
						OFFSET	 0.000000	-0.001747	 0.077940
						CHANNELS 3 Zrotation Xrotation Yrotation
						End Site
						{
							OFFSET	 0.000000	-0.001747	 0.077940
						}
					}
				}
				JOINT RightShoulder
				{
					OFFSET	-0.080363	 0.000306	 0.159706
					CHANNELS 3 Zrotation Xrotation Yrotation
					JOINT RightArm
					{
						OFFSET	 0.000000	 0.000000	 0.164196
						CHANNELS 3 Zrotation Xrotation Yrotation
						JOINT RightForeArm
						{
							OFFSET	 0.000000	 0.000000	 0.365611
							CHANNELS 3 Zrotation Xrotation Yrotation
							JOINT RightHand
							{
								OFFSET	 0.000000	 0.000000	 0.360648
								CHANNELS 3 Zrotation Xrotation Yrotation
								JOINT RightHandIndex1
								{
									OFFSET	 0.000000	 0.000000	 0.069977
									CHANNELS 3 Zrotation Xrotation Yrotation
									JOINT RightHandIndex2
									{
										OFFSET	 0.000000	 0.000000	 0.052305
										CHANNELS 3 Zrotation Xrotation Yrotation
										JOINT RightHandIndex3
										{
											OFFSET	 0.009002	-0.000782	 0.042196
											CHANNELS 3 Zrotation Xrotation Yrotation
											End Site
											{
												OFFSET	 0.009002	-0.000782	 0.042196
											}
										}
									}
								}
							}
						}
					}
				}
			}
		}
	}
}
MOTION
Frames:    7
Frame Time: 0.03333334
-0.038046	 0.262125	 1.010714	 3.478646	 33.309370	-8.355516	 42.584360	-81.594610	-140.678300	 6.882822	-72.677960	 6.971650	 44.799190	 82.813950	-47.729020	-2.385832	 28.452790	-0.000001	 73.073130	-80.539960	-107.968600	-19.615840	-76.795710	-14.102470	 14.991880	 83.482840	 1.529354	 2.384659	 28.388700	-0.000001	-5.006217	 15.122390	 0.105062	-1.437259	 22.372730	 0.084742	-6.695247	-2.573913	 4.540535	-99.104460	 68.194510	 156.980100	 6.185043	-5.975298	-51.609250	-24.286000	 2.879931	-9.447371	-36.064010	-24.186040	-23.286440	-2.027600	 6.559038	 9.033609	-5.188889	 0.308190	 3.541030	-5.234859	 0.342567	 0.430617	 0.207189	 16.791470	-5.629517	-5.937682	-27.133180	-3.773173	 97.398310	 64.622920	-159.313700	-8.389669	 5.070322	 56.849920	 6.936725	 9.273231	 32.399100	 19.747520	-23.888310	 18.811530	 1.803333	 3.979147	-15.098590	 4.898592	 3.004813	-9.310344	 5.224449	 0.395017	 2.014677
-0.036532	 0.261036	 1.023545	 3.304001	 32.210870	-7.865270	 33.210000	-79.810920	-150.054700	 5.989850	-70.892050	 6.056121	 40.554250	 82.413950	-43.355880	-2.385832	 28.452790	-0.000001	 58.172900	-80.043890	-122.546300	-18.230740	-74.990740	-12.652690	 14.232840	 82.994760	 2.251729	 2.384659	 28.388700	-0.000001	-3.651958	 15.047340	-0.058980	-1.076365	 22.785600	-0.373292	-6.992826	-3.460112	 4.254302	-98.689220	 68.564640	 157.707800	 6.404582	-3.899919	-52.619370	-23.954770	 2.877501	-9.448813	-36.299050	-23.687760	-23.690470	-2.027600	 6.559038	 9.033609	-5.188889	 0.308190	 3.541030	-5.234859	 0.342567	 0.430617	-0.314475	 12.840730	-4.495040	-6.380112	-23.088970	-4.005453	 97.173030	 64.292400	-160.208800	-9.236611	 4.913090	 56.542390	 7.171402	 9.868343	 33.824640	 19.382470	-22.915790	 19.711410	 1.803333	 3.979147	-15.098590	 4.898592	 3.004813	-9.310344	 5.224449	 0.395017	 2.014677
-0.034586	 0.260058	 1.037870	 3.112743	 30.993100	-7.336555	 26.116320	-77.593130	-157.137000	 5.267592	-68.825980	 5.302651	 36.098510	 81.882020	-38.817530	-2.385832	 28.452790	-0.000001	 44.114470	-78.781330	-136.239600	-17.044130	-72.901880	-11.386040	 13.490830	 82.425110	 2.941884	 2.384659	 28.388700	-0.000001	-2.310283	 14.953690	-0.201858	-0.728160	 23.108540	-0.800662	-7.303226	-4.406422	 3.917252	-98.071600	 69.337130	 158.485400	 6.979630	-1.260696	-53.701780	-23.541590	 2.867618	-9.439179	-36.589660	-23.245240	-24.403910	-2.027600	 6.559038	 9.033609	-5.188889	 0.308190	 3.541030	-5.234859	 0.342567	 0.430617	-0.730612	 8.245653	-3.460960	-6.740285	-18.451610	-4.116126	 96.895620	 64.159160	-161.046900	-10.269830	 5.172254	 55.948810	 7.042036	 10.391390	 35.522380	 18.784290	-21.847820	 20.381490	 1.803333	 3.979147	-15.098590	 4.898592	 3.004813	-9.310344	 5.224449	 0.395017	 2.014677
-0.031861	 0.258680	 1.055694	 2.839782	 29.419430	-6.629059	 20.182170	-74.567210	-163.130200	 4.638739	-66.201030	 4.627368	 31.538610	 81.199100	-34.175520	-2.385833	 28.452760	 0.000004	 30.867660	-76.423460	-149.073900	-16.005200	-70.176770	-10.229460	 12.865320	 81.725720	 3.546935	 2.384659	 28.388700	-0.000001	-0.768319	 14.809560	-0.360380	-0.351098	 23.377200	-1.235739	-7.644217	-5.599836	 3.476539	-96.993260	 70.955300	 159.416300	 8.010312	 2.539927	-55.202190	-22.959580	 2.840837	-9.405174	-37.009400	-22.819260	-25.573640	-2.027600	 6.559038	 9.033609	-5.188889	 0.308190	 3.541030	-5.234859	 0.342567	 0.430617	-1.065256	 2.167698	-2.396514	-7.080818	-12.405980	-4.099909	 96.430650	 64.691150	-161.817700	-11.610860	 6.576525	 55.160220	 6.352153	 10.810450	 37.829540	 18.020240	-20.809440	 20.878930	 1.803333	 3.979147	-15.098590	 4.898592	 3.004813	-9.310344	 5.224449	 0.395017	 2.014677
-0.029223	 0.257230	 1.071141	 2.619972	 28.020750	-5.933300	 16.531360	-71.808800	-166.893500	 4.433206	-63.879070	 4.356439	 28.415170	 80.588290	-31.063180	-2.385833	 28.452760	 0.000004	 22.457630	-73.913140	-157.144800	-15.453970	-67.672500	-9.549692	 12.509020	 81.122570	 4.002028	 2.384659	 28.388700	-0.000001	 0.566571	 14.710240	-0.541874	 0.015704	 23.553230	-1.680547	-7.887760	-6.619592	 3.171969	-95.538140	 73.311800	 160.080500	 9.040354	 6.468815	-57.119460	-22.385310	 2.809726	-9.363408	-37.469340	-22.648800	-26.527510	-2.027600	 6.559038	 9.033609	-5.188889	 0.308190	 3.541030	-5.234859	 0.342567	 0.430617	-1.287007	-3.183636	-2.178008	-7.188329	-7.148172	-3.504181	 95.675240	 66.139420	-162.597600	-12.770070	 8.890140	 55.264130	 5.536320	 11.021490	 39.885860	 17.649740	-20.628340	 21.334670	 1.803333	 3.979147	-15.098590	 4.898592	 3.004813	-9.310344	 5.224449	 0.395017	 2.014677
-0.025727	 0.254457	 1.089551	 2.491012	 26.367350	-5.091841	 13.196010	-68.415370	-170.308100	 4.388072	-61.035120	 4.205951	 25.129540	 79.738930	-27.832960	-2.385833	 28.452750	 0.000004	 15.367190	-70.508710	-163.832000	-13.706880	-64.643520	-7.746421	 12.064610	 80.488300	 4.069204	 2.384659	 28.388700	-0.000001	 2.057215	 14.513810	-0.809829	 0.384109	 23.693840	-2.233305	-8.132424	-7.814798	 2.883610	-93.752090	 75.947230	 160.791700	 10.682850	 10.544120	-59.401260	-21.639680	 2.762066	-9.296745	-37.525470	-22.498920	-27.590690	-2.027600	 6.559038	 9.033609	-5.188889	 0.308190	 3.541030	-5.234859	 0.342567	 0.430617	-1.532586	-9.796931	-2.426780	-7.316049	-0.781511	-2.499904	 94.783390	 67.897390	-163.495400	-14.388180	 11.443060	 55.387370	 4.570006	 11.297530	 42.591090	 17.173700	-20.582570	 21.569920	 1.803333	 3.979147	-15.098590	 4.898592	 3.004813	-9.310344	 5.224449	 0.395017	 2.014677
-0.022096	 0.250023	 1.108639	 2.632239	 24.862550	-4.387203	 10.802140	-64.904200	-172.650100	 4.313424	-57.898360	 4.018369	 22.524610	 78.749110	-25.229260	-2.385833	 28.452750	 0.000004	 10.422490	-66.843450	-168.245900	-11.857990	-61.378550	-5.897747	 11.891380	 79.691590	 3.704991	 2.384659	 28.388700	-0.000001	 3.593915	 13.903510	-1.138989	 0.643967	 23.582320	-2.671866	-8.318679	-8.970118	 2.426832	-93.335240	 76.390820	 161.991300	 12.363440	 12.968140	-60.556180	-20.829530	 2.702935	-9.211223	-36.755350	-22.185590	-28.576440	-2.027600	 6.559038	 9.033609	-5.188889	 0.308190	 3.541030	-5.234859	 0.342567	 0.430617	-1.668190	-13.591670	-1.962121	-7.500004	 2.993788	-2.260383	 94.125720	 69.075440	-164.337400	-16.013470	 13.749970	 54.577320	 3.503335	 11.554420	 45.689020	 16.487130	-20.436950	 21.593990	 1.803333	 3.979147	-15.098590	 4.898592	 3.004813	-9.310344	 5.224449	 0.395017	 2.014677
